Coordinates
version=1
nRows=17
nColumns=36
inDegrees=yes

Units are S.I. units (second, meters, Newtons, ...)
If the header above contains a line with 'inDegrees', this indicates whether rotational values are in degrees (yes) or radians (no).

endheader
time	pelvis_tilt	pelvis_list	pelvis_rotation	pelvis_tx	pelvis_ty	pelvis_tz	hip_flexion_r	hip_adduction_r	hip_rotation_r	knee_angle_r	knee_angle_r_beta	ankle_angle_r	subtalar_angle_r	mtp_angle_r	hip_flexion_l	hip_adduction_l	hip_rotation_l	knee_angle_l	knee_angle_l_beta	ankle_angle_l	subtalar_angle_l	mtp_angle_l	lumbar_extension	lumbar_bending	lumbar_rotation	arm_flex_r	arm_add_r	arm_rot_r	elbow_flex_r	pro_sup_r	arm_flex_l	arm_add_l	arm_rot_l	elbow_flex_l	pro_sup_l
      3.02083330	    -14.18384144	     -1.70056423	     -2.12073261	     -0.36864615	      1.32541984	     -0.05682674	     30.40227180	      0.60535134	     -0.98720024	     63.74589826	      1.11257581	    -24.48016025	    -22.78907803	     -7.49999987	     29.30325872	     -1.52288543	      7.79071902	     64.79547720	      1.13089442	    -24.76708898	    -23.59995079	     -7.49999987	     -9.22855543	      0.88460137	      3.39513916	    -22.05620527	     -8.82978247	    -51.12919559	     92.77456920	     81.25023938	      0.10981272	    -32.79175583	    -41.48847008	    105.19021169	     90.85185286
      3.02500000	    -14.39325682	     -1.69029731	     -2.47748288	     -0.36312368	      1.32308311	     -0.05580896	     31.08568260	      0.70994414	     -0.52242481	     63.21313088	      1.10327726	    -24.67912829	    -22.44876990	     -7.49999987	     29.90028679	     -1.66620539	      7.60790027	     64.52191897	      1.12611993	    -24.86145862	    -24.73517965	     -7.49999987	     -9.04358580	      0.89496068	      3.49338908	    -22.09384384	     -9.54546875	    -50.88297002	     92.62529244	     79.68803415	      0.22459966	    -33.23860473	    -41.12698657	    104.62056502	     88.55978621
      3.02916670	    -14.29227267	     -1.66651013	     -2.67620806	     -0.35800328	      1.32639794	     -0.05584578	     31.22740583	      0.71443816	     -0.32732752	     62.21624789	      1.08587837	    -24.54933414	    -22.20303139	     -7.49999987	     30.17389835	     -1.80492707	      7.51435304	     64.03523450	      1.11762568	    -24.55392951	    -25.73493503	     -7.49999987	     -9.47843161	      0.89238945	      3.50692505	    -21.91047114	    -10.12030639	    -50.69598314	     92.59733138	     77.88240452	      0.60261656	    -33.66636831	    -40.72803314	    104.03225025	     85.94838036
      3.03333330	    -14.07781401	     -1.65922979	     -2.78537617	     -0.34974878	      1.32566591	     -0.05536200	     31.22272161	      0.77827961	      0.17672681	     61.48638457	      1.07313986	    -24.17275240	    -21.38790674	     -7.49999987	     29.96502476	     -1.81443198	      7.35076396	     63.63046918	      1.11056119	    -24.17141482	    -26.04864220	     -7.49999987	     -9.78836082	      0.96082856	      3.19331362	    -21.70296443	    -10.74491762	    -50.77910040	     92.27539327	     81.60609982	      0.72173291	    -34.20498397	    -41.26941111	    103.20634507	     90.19919347
      3.03750000	    -13.92538636	     -1.63930587	     -3.01763848	     -0.34309395	      1.32349806	     -0.05527982	     31.37869871	      0.82481141	      0.54910450	     61.03391536	      1.06524278	    -23.81285368	    -20.82773191	     -7.49999987	     29.78129500	     -1.90635910	      7.16972630	     63.14876183	      1.10215381	    -24.14681279	    -25.99806066	     -7.49999987	    -10.02390047	      1.00009433	      3.21810078	    -21.94498269	    -11.29418631	    -50.69824493	     92.47087805	     79.30337244	      0.96428207	    -34.71393414	    -40.90482606	    102.38928304	     86.97692678
      3.04166670	    -13.74777202	     -1.67430282	     -3.21294344	     -0.33831903	      1.32645142	     -0.05496765	     31.42164213	      0.91185732	      0.77295852	     60.10368500	      1.04900720	    -24.22500766	    -20.71468362	     -7.49999987	     29.76365280	     -2.07763566	      7.09969775	     62.49497495	      1.09074308	    -23.96239538	    -25.67275031	     -7.49999987	    -10.43063075	      1.06211111	      3.02504053	    -21.56165274	    -12.01289521	    -50.49556959	     92.21877171	     79.53120018	      1.21734873	    -35.04607535	    -40.75656984	    101.65722995	     87.21021355
      3.04583330	    -13.74313185	     -1.75576801	     -3.52766152	     -0.33320806	      1.32094137	     -0.05538946	     31.91368293	      0.98157840	      0.86233515	     59.72834603	      1.04245629	    -23.45796159	    -20.36892357	     -7.49999987	     30.24857408	     -2.30940030	      6.86796490	     62.48157353	      1.09050918	    -23.30819053	    -25.45943548	     -7.49999987	    -10.72610895	      1.18313126	      3.02177063	    -21.55067173	    -12.92838917	    -49.95131151	     92.40302842	     79.60568705	      1.46035243	    -35.54367393	    -40.52929903	    101.35925727	     87.14224167
      3.05000000	    -13.99668892	     -1.72013742	     -3.60395997	     -0.32769826	      1.31789197	     -0.05509703	     32.64083405	      0.94351840	      1.12064709	     59.52474171	      1.03890273	    -22.83126707	    -19.84771713	     -7.49999987	     31.23856349	     -2.33919025	      6.69552730	     62.72776849	      1.09480609	    -22.43902115	    -24.98037533	     -7.49999987	    -10.80048364	      1.22962375	      2.97323538	    -21.77295600	    -13.64832720	    -49.52025936	     92.82467227	     78.24592881	      1.66579800	    -35.99819737	    -40.00900275	    101.15377129	     85.10409014
      3.05416670	    -14.12318558	     -1.75397951	     -3.70748520	     -0.32114277	      1.31726699	     -0.05437549	     32.84544053	      0.86772074	      1.12450399	     58.66116242	      1.02383043	    -22.72606390	    -19.89180476	     -7.49999987	     31.59046641	     -2.61806240	      6.48034047	     62.05304443	      1.08302994	    -21.34106319	    -24.58263541	     -7.49999987	    -10.95036232	      1.27043856	      2.83097780	    -21.98227751	    -14.26802600	    -48.99796581	     93.38516849	     77.58752322	      1.84463010	    -36.62951670	    -39.47747104	    100.92451407	     84.01036468
      3.05833330	    -14.22136394	     -1.67230036	     -3.63228016	     -0.31639519	      1.31267222	     -0.05603982	     33.36243116	      0.77786724	      1.54465685	     58.23502215	      1.01639288	    -21.99049197	    -19.90371857	     -7.49999987	     32.14274774	     -2.61835142	      6.42856148	     61.68048375	      1.07652753	    -21.05418519	    -24.30441093	     -7.49999987	    -11.05006498	      1.25079802	      2.59134007	    -21.97772141	    -14.86262098	    -49.08701515	     93.64858521	     77.53954476	      2.00583924	    -37.12119907	    -39.42938323	    100.85180374	     83.91346378
      3.06250000	    -14.64126983	     -1.50455808	     -3.84012241	     -0.30935796	      1.31070260	     -0.05799812	     34.10441026	      0.59245667	      1.83437756	     57.68606669	      1.00681180	    -21.32429859	    -19.80652800	     -7.49999987	     32.74662592	     -2.51322259	      6.25214056	     61.22483064	      1.06857488	    -20.79660230	    -24.09248578	     -7.49999987	    -10.68584171	      1.33362379	      2.34234763	    -22.38866884	    -15.73875794	    -48.64804826	     94.65528611	     82.45329898	      1.18443833	    -37.59285101	    -39.74624832	    100.73475418	     88.83705253
      3.06666670	    -14.93489319	     -1.42100044	     -3.96853069	     -0.30469032	      1.30580767	     -0.05835445	     34.95445855	      0.57607574	      2.24292041	     57.40475306	      1.00190195	    -20.55265044	    -19.89940182	     -7.49999987	     33.42334401	     -2.44926559	      6.13644039	     60.96176424	      1.06398350	    -20.67779451	    -23.98649425	     -7.49999987	    -10.59350730	      1.48587033	      2.43605763	    -22.89350783	    -16.60871069	    -48.50439965	     96.00001362	     80.57326368	      1.26950360	    -38.12705953	    -39.33918402	    100.69667526	     86.31580943
      3.07083330	    -15.32531703	     -1.44195986	     -4.11272083	     -0.29782593	      1.30245317	     -0.05782868	     35.59445089	      0.62096265	      2.33956623	     56.78118843	      0.99101869	    -20.29374016	    -20.35495763	     -7.49999987	     34.16366170	     -2.54279502	      6.20437260	     60.59417992	      1.05756795	    -20.78293854	    -23.96125055	     -7.49999987	     -9.95098615	      1.62646188	      2.41538749	    -22.86200555	    -17.59896095	    -47.95168343	     95.95367185	     78.51663622	      1.40848259	    -38.58926098	    -38.41418914	    100.29892688	     83.67547745
      3.07500000	    -15.41254451	     -1.28221377	     -4.35349884	     -0.29242157	      1.29915432	     -0.05783657	     36.09694578	      0.54356201	      2.49417745	     56.11712494	      0.97942860	    -19.63715355	    -20.28876711	     -7.49999987	     34.54958527	     -2.50214624	      6.21536760	     60.02684016	      1.04766600	    -20.58418928	    -23.23551147	     -7.49999987	    -10.09587524	      1.58990017	      2.39087276	    -22.91245878	    -18.46901631	    -47.98657066	     96.60918192	     78.45464837	      1.58848134	    -39.18436593	    -38.46453181	    100.40515641	     83.53719710
      3.07916670	    -15.39522111	     -1.33188516	     -4.29719329	     -0.28897878	      1.29727531	     -0.05487003	     36.54488276	      0.77562665	      2.93042580	     55.75803861	      0.97316136	    -19.69788064	    -20.93772242	     -7.49999987	     35.05274528	     -2.87916176	      6.26672000	     59.38312251	      1.03643101	    -19.83869719	    -22.58543879	     -7.49999987	    -10.52028835	      1.66963558	      2.01170947	    -23.14418667	    -19.09473421	    -47.53108985	     97.91447210	     83.13029596	      1.52505482	    -39.97581568	    -38.87187473	    100.47184129	     87.90097762
      3.08333330	    -15.43510307	     -1.25756441	     -4.23045520	     -0.28397577	      1.29442077	     -0.05670987	     36.91816784	      0.64410899	      3.15698785	     54.87115642	      0.95768234	    -19.61732489	    -20.67088136	     -7.49999987	     35.47179100	     -2.95162212	      6.24131016	     58.50697971	      1.02113943	    -19.25345931	    -22.54403637	     -7.49999987	    -10.77613796	      1.59173860	      1.76462549	    -23.23008935	    -19.76415225	    -47.19256969	     98.58890148	     83.13118526	      1.83797138	    -40.71771535	    -38.44522079	    100.47849417	     87.81609059
      3.08750000	    -15.55504693	     -1.25134469	     -4.15950332	     -0.27670628	      1.29065640	     -0.05605060	     37.22866886	      0.67151484	      3.31943293	     53.71842423	      0.93756337	    -19.26018858	    -20.51213451	     -7.49999987	     35.84392482	     -3.15904575	      6.18031365	     57.73185267	      1.00761091	    -19.08451827	    -22.43389040	     -7.49999987	    -10.86879036	      1.49095821	      1.46577420	    -23.14780481	    -20.16826709	    -47.19215539	     98.84108724	     83.06873845	      2.24522336	    -41.23520059	    -38.33328553	    100.57593241	     87.71702676
